<svg width="40" height="40" viewBox="0 0 40 40" fill="none" xmlns="http://www.w3.org/2000/svg">
<g clip-path="url(#clip0_11_2)">
<path d="M32 0H8C3.58172 0 0 3.58172 0 8V32C0 36.4183 3.58172 40 8 40H32C36.4183 40 40 36.4183 40 32V8C40 3.58172 36.4183 0 32 0Z" fill="black"/>
<g clip-path="url(#clip1_11_2)">
<path d="M11.5956 24.34C11.2437 24.0694 11.0451 23.6961 11 23.2201C11.4151 22.9681 11.7987 22.6601 12.1506 22.2961V15.8982C12.1506 14.9649 12.3401 14.2462 12.7191 13.7422C13.1072 13.2383 13.6667 12.9909 14.3977 13.0003C15.0655 13.0096 15.5844 13.2709 15.9544 13.7842C16.3334 14.2976 16.5229 14.9649 16.5229 15.7862C16.5229 16.5142 16.4191 17.2655 16.2116 18.0402C16.013 18.8055 15.7017 19.5708 15.2775 20.3361C15.3588 20.3268 15.44 20.3221 15.5212 20.3221C16.198 20.3221 16.735 20.5695 17.132 21.0641C17.5381 21.5588 17.7412 22.2214 17.7412 23.0521V24.2561C17.7412 24.7974 17.8044 25.1894 17.9307 25.432C18.0661 25.6747 18.2872 25.796 18.594 25.796C18.7384 25.796 18.8422 25.8567 18.9053 25.978C18.9685 26.09 19.0001 26.2347 19.0001 26.412C19.0001 26.5893 18.955 26.7293 18.8647 26.832C18.7835 26.944 18.6662 27 18.5128 27C17.863 27 17.3622 26.7853 17.0102 26.356C16.6673 25.9174 16.4958 25.3014 16.4958 24.508V23.0241C16.4958 22.5481 16.392 22.1794 16.1845 21.9181C15.9859 21.6474 15.7017 21.5121 15.3317 21.5121C14.9707 21.5121 14.6458 21.6381 14.3571 21.8901C14.0683 22.1328 13.8382 22.4687 13.6667 22.8981C13.4952 23.3274 13.405 23.8221 13.396 24.382V26.804C13.3057 26.832 13.2065 26.8553 13.0982 26.874C12.9899 26.8927 12.8861 26.902 12.7868 26.902C12.5793 26.902 12.3672 26.8693 12.1506 26.804V23.9481C11.934 24.1254 11.749 24.2561 11.5956 24.34ZM13.3554 15.8842V21.3301C13.9961 20.3595 14.4834 19.4028 14.8173 18.4602C15.1512 17.5082 15.3181 16.6122 15.3181 15.7722C15.3181 15.2495 15.2324 14.8529 15.061 14.5822C14.8985 14.3022 14.6594 14.1622 14.3435 14.1622C13.6847 14.1622 13.3554 14.7362 13.3554 15.8842Z" fill="white"/>
<path d="M18.5164 27C18.399 27 18.3043 26.944 18.2321 26.832C18.1599 26.72 18.1238 26.5753 18.1238 26.398C18.1238 25.9967 18.2862 25.796 18.6111 25.796C18.8728 25.796 19.139 25.754 19.4098 25.67C19.6805 25.5767 19.9963 25.4227 20.3573 25.208C20.0054 24.5734 19.8294 23.8267 19.8294 22.9681C19.8294 22.3894 19.9332 21.8808 20.1407 21.4421C20.3483 20.9941 20.6371 20.6441 21.0071 20.3921C21.3771 20.1308 21.7967 20.0001 22.266 20.0001C22.663 20.0001 23.015 20.0981 23.3218 20.2941C23.6286 20.4808 23.8678 20.7421 24.0393 21.0781C24.2107 21.4141 24.2964 21.8014 24.2964 22.2401C24.2964 22.8374 24.125 23.3834 23.7821 23.8781C23.4482 24.3727 22.8796 24.9094 22.0765 25.488C22.3652 25.7027 22.7533 25.81 23.2406 25.81C23.3669 25.81 23.4662 25.866 23.5384 25.978C23.6106 26.09 23.6467 26.2393 23.6467 26.426C23.6467 26.6033 23.6061 26.7433 23.5249 26.846C23.4436 26.9487 23.3263 27 23.1729 27C22.7397 27 22.3337 26.9253 21.9546 26.776C21.5756 26.6267 21.2598 26.4213 21.0071 26.16C20.1407 26.72 19.3105 27 18.5164 27ZM21.0071 22.8561C21.0071 23.5934 21.1334 24.1814 21.3861 24.62C21.9727 24.2001 22.4058 23.7894 22.6856 23.3881C22.9744 22.9867 23.1188 22.6041 23.1188 22.2401C23.1188 21.9041 23.0376 21.6428 22.8751 21.4561C22.7217 21.2601 22.5051 21.1621 22.2254 21.1621C21.8734 21.1621 21.5801 21.3254 21.3455 21.6521C21.1199 21.9788 21.0071 22.3801 21.0071 22.8561Z" fill="white"/>
<path d="M23.1646 27C23.0472 27 22.9525 26.944 22.8803 26.832C22.8081 26.72 22.772 26.5753 22.772 26.398C22.772 26.2113 22.8171 26.0667 22.9074 25.964C22.9886 25.8614 23.1014 25.81 23.2458 25.81C23.7963 25.81 24.2655 25.6374 24.6536 25.292C25.0506 24.9467 25.4567 24.3494 25.8719 23.5001L26.6299 21.9741C26.9999 21.2274 27.3519 20.7141 27.6858 20.4341C28.0197 20.1448 28.4077 20.0001 28.8499 20.0001C29.256 20.0001 29.5989 20.1261 29.8787 20.3781C30.1584 20.6208 30.3524 20.9521 30.4607 21.3721C30.7134 20.9334 31.0383 20.5975 31.4354 20.3641C31.8324 20.1215 32.2746 20.0001 32.7619 20.0001C33.4658 20.0001 34.0073 20.2381 34.3863 20.7141C34.7744 21.1901 34.9684 21.8574 34.9684 22.7161V24.354C34.9684 24.8674 35.0316 25.236 35.1579 25.46C35.2933 25.684 35.5053 25.796 35.7941 25.796C35.8934 25.796 36.0017 25.7727 36.119 25.726C36.2363 25.6794 36.3581 25.6094 36.4845 25.516C36.6379 25.5907 36.7642 25.7214 36.8635 25.908C36.9628 26.0854 37.0079 26.2627 36.9989 26.44C36.8545 26.608 36.6695 26.7433 36.4439 26.846C36.2183 26.9487 35.9746 27 35.7129 27H35.6994C34.3908 27 33.7366 26.1693 33.7366 24.508V22.7161C33.7366 21.7081 33.353 21.2041 32.586 21.2041C32.1889 21.2041 31.837 21.3674 31.5301 21.6941C31.2323 22.0208 30.9977 22.4734 30.8262 23.0521C30.6638 23.6307 30.5826 24.3027 30.5826 25.068V26.804C30.4923 26.832 30.3931 26.8553 30.2848 26.874C30.1765 26.8927 30.0727 26.902 29.9734 26.902C29.7568 26.902 29.5538 26.8693 29.3643 26.804V22.3381C29.3643 21.9741 29.3192 21.6941 29.2289 21.4981C29.1387 21.3021 28.9762 21.2041 28.7416 21.2041C28.5611 21.2041 28.3897 21.3208 28.2272 21.5541C28.0738 21.7781 27.8798 22.1281 27.6451 22.6041L26.7111 24.466C26.278 25.3247 25.7726 25.964 25.195 26.384C24.6265 26.7947 23.9497 27 23.1646 27Z" fill="white"/>
<path d="M7.30972 27C6.41351 27 5.64031 26.78 4.99012 26.34C4.34871 25.9 3.85667 25.284 3.514 24.492C3.17133 23.7 3 22.7711 3 21.7053C3 20.5711 3.18451 19.5787 3.55354 18.728C3.93136 17.8676 4.45415 17.1978 5.12191 16.7187C5.78968 16.2396 6.55409 16 7.41516 16C8.10049 16 8.72433 16.1564 9.28666 16.4693C9.85777 16.7724 10.3191 17.1978 10.6705 17.7453C10.6266 17.9213 10.5124 18.1022 10.3278 18.288C10.1521 18.4738 9.97639 18.596 9.80066 18.6547C9.48435 18.1951 9.12411 17.8578 8.71993 17.6427C8.31576 17.4276 7.88083 17.32 7.41516 17.32C6.79132 17.32 6.24217 17.5009 5.76771 17.8627C5.29325 18.2244 4.92422 18.728 4.66063 19.3733C4.39703 20.0187 4.26524 20.7716 4.26524 21.632C4.26524 22.4436 4.38385 23.1524 4.62109 23.7587C4.86711 24.3649 5.22295 24.8391 5.68863 25.1813C6.1631 25.5138 6.7386 25.68 7.41516 25.68C8.00384 25.68 8.51345 25.548 8.94399 25.284C9.37452 25.02 9.76551 24.6484 10.117 24.1693C10.2839 24.228 10.4552 24.3356 10.631 24.492C10.8067 24.6484 10.9297 24.8049 11 24.9613C10.5958 25.6262 10.073 26.1347 9.43163 26.4867C8.79901 26.8289 8.09171 27 7.30972 27Z" fill="white"/>
<path d="M7.30972 27C6.41351 27 5.64031 26.78 4.99012 26.34C4.34871 25.9 3.85667 25.284 3.514 24.492C3.17133 23.7 3 22.7711 3 21.7053C3 20.5711 3.18451 19.5787 3.55354 18.728C3.93136 17.8676 4.45415 17.1978 5.12191 16.7187C5.78968 16.2396 6.55409 16 7.41516 16C8.10049 16 8.72433 16.1564 9.28666 16.4693C9.85777 16.7724 10.3191 17.1978 10.6705 17.7453C10.6266 17.9213 10.5124 18.1022 10.3278 18.288C10.1521 18.4738 9.97639 18.596 9.80066 18.6547C9.48435 18.1951 9.12411 17.8578 8.71993 17.6427C8.31576 17.4276 7.88083 17.32 7.41516 17.32C6.79132 17.32 6.24217 17.5009 5.76771 17.8627C5.29325 18.2244 4.92422 18.728 4.66063 19.3733C4.39703 20.0187 4.26524 20.7716 4.26524 21.632C4.26524 22.4436 4.38385 23.1524 4.62109 23.7587C4.86711 24.3649 5.22295 24.8391 5.68863 25.1813C6.1631 25.5138 6.7386 25.68 7.41516 25.68C8.00384 25.68 8.51345 25.548 8.94399 25.284C9.37452 25.02 9.76551 24.6484 10.117 24.1693C10.2839 24.228 10.4552 24.3356 10.631 24.492C10.8067 24.6484 10.9297 24.8049 11 24.9613C10.5958 25.6262 10.073 26.1347 9.43163 26.4867C8.79901 26.8289 8.09171 27 7.30972 27Z" fill="white"/>
</g>
</g>
<defs>
<clipPath id="clip0_11_2">
<rect width="40" height="40" fill="white"/>
</clipPath>
<clipPath id="clip1_11_2">
<rect width="34" height="14" fill="white" transform="translate(3 13)"/>
</clipPath>
</defs>
</svg>
