<svg width="52" height="20" viewBox="0 0 52 20" fill="none" xmlns="http://www.w3.org/2000/svg">
<path d="M4.578 17.0003C3.626 17.0003 2.80467 16.7903 2.114 16.3703C1.43267 15.9503 0.91 15.3623 0.546 14.6063C0.182 13.8503 0 12.9636 0 11.9463C0 10.8636 0.196 9.91626 0.588 9.10426C0.989333 8.28292 1.54467 7.64359 2.254 7.18625C2.96333 6.72892 3.77533 6.50025 4.69 6.50025C5.418 6.50025 6.08067 6.64959 6.678 6.94825C7.28467 7.23759 7.77467 7.64359 8.148 8.16625C8.10133 8.33426 7.98 8.50692 7.784 8.68425C7.59733 8.86159 7.41067 8.97826 7.224 9.03426C6.888 8.59559 6.50533 8.27359 6.076 8.06826C5.64667 7.86292 5.18467 7.76025 4.69 7.76025C4.02733 7.76025 3.444 7.93292 2.94 8.27825C2.436 8.62359 2.044 9.10426 1.764 9.72025C1.484 10.3363 1.344 11.0549 1.344 11.8763C1.344 12.6509 1.47 13.3276 1.722 13.9063C1.98333 14.4849 2.36133 14.9376 2.856 15.2643C3.36 15.5816 3.97133 15.7403 4.69 15.7403C5.31533 15.7403 5.85667 15.6143 6.314 15.3623C6.77133 15.1103 7.18667 14.7556 7.56 14.2983C7.73733 14.3543 7.91933 14.4569 8.106 14.6063C8.29267 14.7556 8.42333 14.9049 8.498 15.0543C8.06867 15.6889 7.51333 16.1743 6.832 16.5103C6.16 16.8369 5.40867 17.0003 4.578 17.0003Z" fill="white"/>
<path d="M9.76106 14.3403C9.39706 14.0696 9.19173 13.6963 9.14506 13.2203C9.5744 12.9683 9.97106 12.6603 10.3351 12.2963V5.89825C10.3351 4.96492 10.5311 4.24625 10.9231 3.74225C11.3244 3.23825 11.9031 2.99092 12.6591 3.00025C13.3497 3.00959 13.8864 3.27092 14.2691 3.78425C14.6611 4.29759 14.8571 4.96492 14.8571 5.78625C14.8571 6.51425 14.7497 7.26559 14.5351 8.04025C14.3297 8.80559 14.0077 9.57092 13.5691 10.3363C13.6531 10.3269 13.7371 10.3223 13.8211 10.3223C14.5211 10.3223 15.0764 10.5696 15.4871 11.0643C15.9071 11.5589 16.1171 12.2216 16.1171 13.0523V14.2563C16.1171 14.7976 16.1824 15.1896 16.3131 15.4323C16.4531 15.6749 16.6817 15.7963 16.9991 15.7963C17.1484 15.7963 17.2557 15.8569 17.3211 15.9783C17.3864 16.0903 17.4191 16.2349 17.4191 16.4123C17.4191 16.5896 17.3724 16.7296 17.2791 16.8323C17.1951 16.9443 17.0737 17.0003 16.9151 17.0003C16.2431 17.0003 15.7251 16.7856 15.3611 16.3563C15.0064 15.9176 14.8291 15.3016 14.8291 14.5083V13.0243C14.8291 12.5483 14.7217 12.1796 14.5071 11.9183C14.3017 11.6476 14.0077 11.5123 13.6251 11.5123C13.2517 11.5123 12.9157 11.6383 12.6171 11.8903C12.3184 12.1329 12.0804 12.4689 11.9031 12.8983C11.7257 13.3276 11.6324 13.8223 11.6231 14.3823V16.8043C11.5297 16.8323 11.4271 16.8556 11.3151 16.8743C11.2031 16.8929 11.0957 16.9023 10.9931 16.9023C10.7784 16.9023 10.5591 16.8696 10.3351 16.8043V13.9483C10.1111 14.1256 9.91973 14.2563 9.76106 14.3403ZM11.5811 5.88425V11.3303C12.2437 10.3596 12.7477 9.40292 13.0931 8.46026C13.4384 7.50826 13.6111 6.61226 13.6111 5.77225C13.6111 5.24959 13.5224 4.85292 13.3451 4.58226C13.1771 4.30225 12.9297 4.16225 12.6031 4.16225C11.9217 4.16225 11.5811 4.73625 11.5811 5.88425Z" fill="white"/>
<path d="M16.9188 17.0003C16.7974 17.0003 16.6994 16.9443 16.6248 16.8323C16.5501 16.7203 16.5128 16.5756 16.5128 16.3983C16.5128 15.9969 16.6808 15.7963 17.0168 15.7963C17.2874 15.7963 17.5628 15.7543 17.8428 15.6703C18.1228 15.5769 18.4494 15.4229 18.8228 15.2083C18.4588 14.5736 18.2768 13.8269 18.2768 12.9683C18.2768 12.3896 18.3841 11.8809 18.5988 11.4423C18.8134 10.9943 19.1121 10.6443 19.4948 10.3923C19.8774 10.1309 20.3114 10.0003 20.7968 10.0003C21.2074 10.0003 21.5714 10.0983 21.8888 10.2943C22.2061 10.4809 22.4534 10.7423 22.6308 11.0783C22.8081 11.4143 22.8968 11.8016 22.8968 12.2403C22.8968 12.8376 22.7194 13.3836 22.3648 13.8783C22.0194 14.3729 21.4314 14.9096 20.6008 15.4883C20.8994 15.7029 21.3008 15.8103 21.8048 15.8103C21.9354 15.8103 22.0381 15.8663 22.1128 15.9783C22.1874 16.0903 22.2248 16.2396 22.2248 16.4263C22.2248 16.6036 22.1828 16.7436 22.0988 16.8463C22.0148 16.9489 21.8934 17.0003 21.7348 17.0003C21.2868 17.0003 20.8668 16.9256 20.4748 16.7763C20.0828 16.6269 19.7561 16.4216 19.4948 16.1603C18.5988 16.7203 17.7401 17.0003 16.9188 17.0003ZM19.4948 12.8563C19.4948 13.5936 19.6254 14.1816 19.8868 14.6203C20.4934 14.2003 20.9414 13.7896 21.2308 13.3883C21.5294 12.9869 21.6788 12.6043 21.6788 12.2403C21.6788 11.9043 21.5948 11.6429 21.4268 11.4563C21.2681 11.2603 21.0441 11.1623 20.7548 11.1623C20.3908 11.1623 20.0874 11.3256 19.8448 11.6523C19.6114 11.9789 19.4948 12.3803 19.4948 12.8563Z" fill="white"/>
<path d="M21.7261 17.0003C21.6048 17.0003 21.5068 16.9443 21.4321 16.8323C21.3575 16.7203 21.3201 16.5756 21.3201 16.3983C21.3201 16.2116 21.3668 16.0669 21.4601 15.9643C21.5441 15.8616 21.6608 15.8103 21.8101 15.8103C22.3795 15.8103 22.8648 15.6376 23.2661 15.2923C23.6768 14.9469 24.0968 14.3496 24.5261 13.5003L25.3101 11.9743C25.6928 11.2276 26.0568 10.7143 26.4021 10.4343C26.7475 10.1449 27.1488 10.0003 27.6061 10.0003C28.0261 10.0003 28.3808 10.1263 28.6701 10.3783C28.9595 10.6209 29.1601 10.9523 29.2721 11.3723C29.5335 10.9336 29.8695 10.5976 30.2801 10.3643C30.6908 10.1216 31.1481 10.0003 31.6521 10.0003C32.3801 10.0003 32.9401 10.2383 33.3321 10.7143C33.7335 11.1903 33.9341 11.8576 33.9341 12.7163V14.3543C33.9341 14.8676 33.9995 15.2363 34.1301 15.4603C34.2701 15.6843 34.4895 15.7963 34.7881 15.7963C34.8908 15.7963 35.0028 15.7729 35.1241 15.7263C35.2455 15.6796 35.3715 15.6096 35.5021 15.5163C35.6608 15.5909 35.7915 15.7216 35.8941 15.9083C35.9968 16.0856 36.0435 16.2629 36.0341 16.4403C35.8848 16.6083 35.6935 16.7436 35.4601 16.8463C35.2268 16.9489 34.9748 17.0003 34.7041 17.0003H34.6901C33.3368 17.0003 32.6601 16.1696 32.6601 14.5083V12.7163C32.6601 11.7083 32.2635 11.2043 31.4701 11.2043C31.0595 11.2043 30.6955 11.3676 30.3781 11.6943C30.0701 12.0209 29.8275 12.4736 29.6501 13.0523C29.4821 13.6309 29.3981 14.3029 29.3981 15.0683V16.8043C29.3048 16.8323 29.2021 16.8556 29.0901 16.8743C28.9781 16.8929 28.8708 16.9023 28.7681 16.9023C28.5441 16.9023 28.3341 16.8696 28.1381 16.8043V12.3383C28.1381 11.9743 28.0915 11.6943 27.9981 11.4983C27.9048 11.3023 27.7368 11.2043 27.4941 11.2043C27.3075 11.2043 27.1301 11.3209 26.9621 11.5543C26.8035 11.7783 26.6028 12.1283 26.3601 12.6043L25.3941 14.4663C24.9461 15.3249 24.4235 15.9643 23.8261 16.3843C23.2381 16.7949 22.5381 17.0003 21.7261 17.0003Z" fill="white"/>
</svg>
