<svg width="24" height="24" viewBox="0 0 24 24" fill="none" xmlns="http://www.w3.org/2000/svg">
<path opacity="0.6" d="M21.562 9.99552C22.9842 12.0273 24.2215 15.3473 19.1414 18.9034C14.0613 22.4595 3.54646 22.0734 1.89178 19.7096C0.237104 17.3459 6.26687 15.5834 11.347 12.0273C16.4271 8.47117 20.5022 8.48161 21.562 9.99552Z" fill="url(#paint0_linear_6_2)"/>
<path opacity="0.4" d="M23 11.8462C23 17.284 22.1278 18 16.0526 18C9.9775 18 1 17.284 1 11.8462C1 6.40827 5.92487 2 12 2C18.0751 2 23 6.40827 23 11.8462Z" fill="url(#paint1_linear_6_2)"/>
<defs>
<linearGradient id="paint0_linear_6_2" x1="9.88255" y1="12.2178" x2="16" y2="19.5" gradientUnits="userSpaceOnUse">
<stop stop-color="white" stop-opacity="0"/>
<stop offset="1" stop-color="white"/>
</linearGradient>
<linearGradient id="paint1_linear_6_2" x1="12" y1="2" x2="12" y2="18" gradientUnits="userSpaceOnUse">
<stop stop-color="white"/>
<stop offset="1" stop-color="white" stop-opacity="0.1"/>
</linearGradient>
</defs>
</svg>
